{"title":"Walt Disney Treasures The Chronological Donald Volume 1 (1934-19","uid":10685841,"size":12943325184,"categoryP":"video","categoryS":"movies_dvdr","magnet":"?xt=urn:btih:c50005c690e94ea9d1174282a477eddba8433c69&amp;dn=Walt+Disney+Treasures+The+Chronological+Donald+Volume+1+%281934-19&amp;tr=udp%3A%2F%2Ftracker.openbittorrent.com%3A80&amp;tr=udp%3A%2F%2Fopen.demonii.com%3A1337&amp;tr=udp%3A%2F%2Ftracker.coppersurfer.tk%3A6969&amp;tr=udp%3A%2F%2Fexodus.desync.com%3A6969","seeders":1,"leechers":3,"uploader":"zerodayz","files":-1,"time":1407079358,"description":"\n\nPlot:\n\n\n\n    A collection of animated shorts starring Donald Duck. The volume begins with 'Donald and Pluto' from 1934 and ends with 'Chef Donald' from 1941. Also included is a tribute to Clarence Nash, the voice of Donald Duck.\n\n\n\n\n\n\n    It was 1934 when the irascible Donald Duck came to life in a teeny bit of a part in 'The Wise Little Men' and proceeded to steal the show. From that point on nobody could hold him back, and the much-loved cranky character went on the most profilic of Walt's FAB FIVE. Now for the First Time, you can enjoy Donald in ALL of his STARRING SHORTS from 'Donald &amp; Pluto' in 1936 to 'Chef Donald' in 1941. This Volume also includes insights into the origins and career of the belligerent 'bird' from Tony Aselmo, a renowned Disney Animator who apprenticed for 3 years with Clarence &quot;Ducky&quot; Nash, the originator of Donald's distinctive voice. Also features exclusive introductions by film historian, Leonald Maltin, making this 2 DVD Set a TIMELESS Collection from generations past for generations to come.\n\n\n\n\n\n\n\n\n\n    Format: PAL\n    Genre: Animation | Family\n    Language: English Dolby Digital 2.0\n    Subtitles: English (SDH), Swedish, Norwegian, Danish, Finnish, Icelandic\n    Menu's: Untouched\n    Extra's: Untouched\n    Region: Region 2 (This DVD may not be viewable outside Europe. Read more about DVD formats.)\n    Aspect Ratio: 4:3 - 1.33:1\n    Bit Rate: 5 680 Kbps\n    Number of discs: 2xDVD9\n    Classification: U\n    Studio: Disney\n    DVD Release Date: 4 April 2005\n    Run Time: 289 minutes\n\n\nMedia Info:\n\n\n\n\n\n\n    Format                                   : MPEG-PS\n    File size                                : 1 024 MiB\n    Duration                                 : 25mn 12s\n    Overall bit rate mode                    : Variable\n    Overall bit rate                         : 5 680 Kbps\n\n    Video\n    ID                                       : 224 (0xE0)\n    Format                                   : MPEG Video\n    Format version                           : Version 2\n    Format profile                           : Main@Main\n    Format settings, BVOP                    : Yes\n    Format settings, Matrix                  : Custom\n    Format settings, GOP                     : Variable\n    Duration                                 : 25mn 12s\n    Bit rate mode                            : Variable\n    Bit rate                                 : 5 375 Kbps\n    Maximum bit rate                         : 8 800 Kbps\n    Width                                    : 720 pixels\n    Height                                   : 576 pixels\n    Display aspect ratio                     : 4:3\n    Frame rate                               : 25.000 fps\n    Standard                                 : PAL\n    Color space                              : YUV\n    Chroma subsampling                       : 4:2:0\n    Bit depth                                : 8 bits\n    Scan type                                : Interlaced\n    Scan order                               : Top Field First\n    Compression mode                         : Lossy\n    Bits/(Pixel*Frame)                       : 0.518\n    Time code of first frame                 : 01:25:22:16\n    Time code source                         : Group of pictures header\n    Stream size                              : 969 MiB (95%)\n\n    Audio\n    ID                                       : 189 (0xBD)-128 (0x80)\n    Format                                   : AC-3\n    Format/Info                              : Audio Coding 3\n    Mode extension                           : CM (complete main)\n    Format settings, Endianness              : Big\n    Muxing mode                              : DVD-Video\n    Duration                                 : 25mn 12s\n    Bit rate mode                            : Constant\n    Bit rate                                 : 192 Kbps\n    Channel(s)                               : 2 channels\n    Channel positions                        : Front: L R\n    Sampling rate                            : 48.0 KHz\n    Bit depth                                : 16 bits\n    Compression mode                         : Lossy\n    Delay relative to video                  : -560ms\n    Stream size                              : 34.6 MiB (3%)\n\n    Text #1\n    ID                                       : 189 (0xBD)-32 (0x20)\n    Format                                   : RLE\n    Format/Info                              : Run-length encoding\n    Muxing mode                              : DVD-Video\n    Delay relative to video                  : 120ms\n\n    Text #2\n    ID                                       : 189 (0xBD)-33 (0x21)\n    Format                                   : RLE\n    Format/Info                              : Run-length encoding\n    Muxing mode                              : DVD-Video\n    Delay relative to video                  : 120ms\n\n    Text #3\n    ID                                       : 189 (0xBD)-34 (0x22)\n    Format                                   : RLE\n    Format/Info                              : Run-length encoding\n    Muxing mode                              : DVD-Video\n\n    Text #4\n    ID                                       : 189 (0xBD)-35 (0x23)\n    Format                                   : RLE\n    Format/Info                              : Run-length encoding\n    Muxing mode                              : DVD-Video\n\n    Text #5\n    ID                                       : 189 (0xBD)-36 (0x24)\n    Format                                   : RLE\n    Format/Info                              : Run-length encoding\n    Muxing mode                              : DVD-Video\n\n    Text #6\n    ID                                       : 189 (0xBD)-37 (0x25)\n    Format                                   : RLE\n    Format/Info                              : Run-length encoding\n    Muxing mode                              : DVD-Video\n\n    Text #7\n    ID                                       : 189 (0xBD)-38 (0x26)\n    Format                                   : RLE\n    Format/Info                              : Run-length encoding\n    Muxing mode                              : DVD-Video\n    Delay relative to video                  : 120ms\n\n    Menu\n\n\n\n\n","torrent":{"xt":"urn:btih:c50005c690e94ea9d1174282a477eddba8433c69","amp;dn":"Walt+Disney+Treasures+The+Chronological+Donald+Volume+1+%281934-19","amp;tr":["udp%3A%2F%2Ftracker.openbittorrent.com%3A80","udp%3A%2F%2Fopen.demonii.com%3A1337","udp%3A%2F%2Ftracker.coppersurfer.tk%3A6969","udp%3A%2F%2Fexodus.desync.com%3A6969"],"infoHash":"c50005c690e94ea9d1174282a477eddba8433c69","infoHashBuffer":{"type":"Buffer","data":[197,0,5,198,144,233,78,169,209,23,66,130,164,119,237,219,168,67,60,105]},"announce":[],"urlList":[]}}